<?xml version="1.0" standalone="no"?>
<!DOCTYPE svg PUBLIC "-//W3C//DTD SVG 20010904//EN"
 "http://www.w3.org/TR/2001/REC-SVG-20010904/DTD/svg10.dtd">
<svg version="1.0" xmlns="http://www.w3.org/2000/svg"
 width="392.000000pt" height="582.000000pt" viewBox="0 0 392.000000 582.000000"
 preserveAspectRatio="xMidYMid meet">

<g transform="translate(0.000000,582.000000) scale(0.100000,-0.100000)"
fill="#000000" stroke="none">
<path d="M1755 5395 c-44 -7 -102 -18 -130 -25 -55 -14 -296 -114 -335 -140
-14 -9 -38 -21 -53 -28 -40 -17 -212 -150 -283 -218 -69 -68 -204 -241 -204
-263 0 -5 -8 -19 -18 -32 -27 -35 -90 -180 -108 -246 -79 -296 -73 -547 21
-853 58 -187 185 -425 331 -620 90 -120 173 -321 194 -471 5 -41 14 -137 20
-214 21 -309 99 -432 360 -565 47 -24 92 -47 100 -51 8 -4 29 -11 45 -16 l30
-7 -38 -4 c-21 -2 -69 4 -107 12 -90 21 -221 21 -260 1 -16 -9 -36 -29 -45
-45 -20 -39 -19 -109 3 -141 21 -33 100 -99 117 -99 7 0 18 -6 24 -14 7 -8 26
-18 42 -21 17 -4 33 -13 36 -21 3 -8 15 -14 27 -14 24 0 53 -16 45 -25 -4 -3
-44 -1 -91 4 -85 10 -146 3 -173 -19 -43 -36 -41 -134 4 -198 29 -39 159 -134
202 -147 13 -4 32 -16 42 -26 17 -18 16 -19 -10 -25 -61 -15 -84 -55 -73 -129
22 -148 91 -292 169 -354 86 -68 225 -79 371 -28 113 40 149 98 100 160 -20
26 -20 26 -1 36 11 6 46 11 78 11 102 0 165 67 148 156 -6 36 -62 99 -106 121
-57 28 -119 53 -133 53 -9 0 -16 5 -16 10 0 13 67 13 75 0 4 -6 58 -10 129
-10 120 0 123 0 149 28 96 101 56 200 -116 285 -52 26 -101 47 -110 47 -9 0
-19 5 -22 10 -3 6 -14 10 -23 10 -9 0 -30 7 -46 15 -15 8 -38 15 -50 15 -12 0
-31 7 -42 15 -10 8 -28 15 -40 15 -11 0 -29 7 -40 15 -18 13 -16 14 23 15 23
0 44 -4 47 -9 4 -5 24 -12 46 -16 22 -4 43 -12 47 -19 5 -7 31 -16 58 -19 28
-4 86 -13 130 -21 144 -27 241 -17 271 29 9 14 20 42 25 62 28 126 -88 220
-381 304 -79 22 -322 98 -425 131 -66 21 -116 41 -156 63 -15 8 -46 25 -69 37
-24 13 -67 46 -95 73 -68 65 -95 134 -95 244 0 44 -7 115 -15 158 -8 43 -15
93 -15 112 0 30 -50 227 -70 276 -5 11 -19 47 -31 80 -13 33 -28 67 -35 75 -6
8 -20 31 -29 50 -10 19 -48 75 -85 125 -98 132 -192 301 -254 459 -60 151 -68
182 -93 361 -13 102 -14 139 -4 243 17 171 41 258 111 397 132 263 365 477
635 585 44 17 89 36 100 42 23 13 109 34 220 53 202 36 502 0 690 -84 11 -5
47 -21 80 -36 153 -67 332 -209 427 -338 24 -32 52 -71 64 -85 79 -102 168
-299 208 -460 22 -88 24 -344 3 -437 -56 -252 -201 -494 -475 -793 -42 -46
-83 -94 -92 -107 -70 -104 -65 -94 -159 -300 -47 -102 -91 -241 -152 -485 -21
-82 -53 -133 -100 -158 -38 -21 -53 -23 -117 -19 -89 7 -160 38 -182 82 -17
35 -18 153 -6 695 9 338 9 346 33 386 l23 41 0 346 c-1 276 -4 348 -14 356 -9
8 -61 11 -152 9 l-139 -3 -3 -363 -2 -362 24 -38 c28 -43 31 -100 46 -697 4
-187 12 -358 17 -381 10 -43 54 -114 94 -151 51 -46 219 -98 296 -90 112 11
195 48 247 109 46 53 91 148 105 219 25 132 46 212 71 274 4 11 20 54 35 95
26 70 84 194 124 266 26 48 83 121 172 219 181 202 250 300 347 490 58 114
105 245 122 345 33 182 33 186 22 300 -17 194 -59 336 -148 511 -100 196 -196
325 -337 453 -73 66 -207 166 -223 166 -3 0 -18 8 -32 18 -15 11 -85 42 -157
71 -71 28 -139 56 -150 61 -11 4 -42 12 -70 15 -27 4 -72 12 -100 17 -82 16
-400 18 -490 3z m35 -3775 c0 -5 -11 -10 -24 -10 -14 0 -28 5 -31 10 -4 6 7
10 24 10 17 0 31 -4 31 -10z m94 -29 c3 -5 0 -11 -8 -14 -18 -7 -56 3 -56 14
0 12 57 12 64 0z m81 -31 c4 -6 -7 -10 -24 -10 -17 0 -31 5 -31 10 0 6 11 10
24 10 14 0 28 -4 31 -10z m110 -30 c17 -7 15 -9 -12 -9 -18 -1 -33 4 -33 9 0
12 17 12 45 0z m141 -35 c16 -8 39 -15 52 -15 24 0 30 -15 8 -23 -17 -7 -50 1
-86 20 -14 7 -35 13 -47 13 -12 0 -25 5 -28 10 -10 16 69 12 101 -5z m-581
-25 c4 -6 -5 -10 -19 -10 -14 0 -26 5 -26 10 0 6 9 10 19 10 11 0 23 -4 26
-10z m70 -30 c4 -6 -5 -10 -19 -10 -14 0 -26 5 -26 10 0 6 9 10 19 10 11 0 23
-4 26 -10z m95 -30 c11 -7 0 -10 -37 -10 -29 0 -53 5 -53 10 0 13 70 13 90 0z
m125 -30 c8 -13 -65 -13 -85 0 -11 7 -2 10 32 10 26 0 50 -4 53 -10z m-185
-150 c0 -5 -9 -10 -20 -10 -11 0 -20 5 -20 10 0 6 9 10 20 10 11 0 20 -4 20
-10z m90 -30 c0 -5 -13 -10 -30 -10 -16 0 -30 5 -30 10 0 6 14 10 30 10 17 0
30 -4 30 -10z m75 -30 c4 -6 -7 -10 -24 -10 -17 0 -31 5 -31 10 0 6 11 10 24
10 14 0 28 -4 31 -10z m150 -240 c4 -6 -8 -10 -29 -10 -20 0 -36 5 -36 10 0 6
13 10 29 10 17 0 33 -4 36 -10z m-340 -90 c3 -5 -3 -10 -14 -10 -12 0 -21 5
-21 10 0 6 6 10 14 10 8 0 18 -4 21 -10z m85 -30 c0 -5 -9 -10 -20 -10 -11 0
-20 5 -20 10 0 6 9 10 20 10 11 0 20 -4 20 -10z m80 -30 c0 -5 -11 -10 -25
-10 -14 0 -25 5 -25 10 0 6 11 10 25 10 14 0 25 -4 25 -10z m-75 -165 c33 -7
73 -18 88 -24 16 -6 41 -11 55 -11 15 0 38 -7 50 -16 18 -13 21 -19 11 -30 -6
-8 -17 -14 -24 -14 -6 0 -26 -7 -43 -16 -95 -47 -201 -19 -249 67 -34 59 -27
82 19 67 18 -5 60 -16 93 -23z"/>
<path d="M1890 4193 c0 -10 -16 -52 -35 -92 -44 -91 -54 -151 -30 -171 15 -12
19 -10 42 19 l25 32 19 -30 c25 -42 55 -41 63 2 6 34 1 59 -34 147 -12 30 -24
65 -27 78 -7 28 -23 39 -23 15z"/>
</g>
</svg>
